# xmcd
#
# Track frame offsets: 
#        150
#        11945
#        26685
#        40125
#        52475
#        66062
#        78215
#        91407
#        104915
#        118167
#        130572
#        144295
#        158112
#        171235
#        185955
#        198522
#        210500
#        222030
#        233287
#        245532
#        257360
#        269840
#        282260
#        296207
#        308892
#        320135
#        332097
#        343230
#
# Disc length: 4751 seconds
#
# Revision: 0
# Processed by: cddbd v1.5.1PL0 Copyright (c) Steve Scherf et al.
# Submitted via: ExactAudioCopy v0.95a4
#
DISCID=b8128d1c
DTITLE=Rex Griffin - The Last Letter 1
DYEAR=1900
DGENRE=Country
TTITLE0=Why Should I Care If You're Blue (1935)
TTITLE1=Blue Eyes Lullaby (1935)
TTITLE2=Just For Old Times Sake (1935)
TTITLE3=Love Call Yodel (1935)
TTITLE4=I Don't Love Anybody But You (1935)
TTITLE5=The Trail To Home Sweet Home (1935)
TTITLE6=Let Me Call You Sweetheart Again (1935)
TTITLE7=Mean Woman Blues (1935)
TTITLE8=Dixieland Sweetheart (1996)
TTITLE9=Down In Old Alabama (1996)
TTITLE10=Everybody's Tryin' To Be My Baby (1936)
TTITLE11=If You Call That Gone Goodbye (1936)
TTITLE12=The Yodelling Cowboy's Last Song (1937)
TTITLE13=I Love You Nellie (1936)
TTITLE14=I'm Just Passing Through (1936)
TTITLE15=I'm Ready To Reform (1936)
TTITLE16=The Walkin' Blues (1936)
TTITLE17=An Old Faded Photograph (1936)
TTITLE18=Sittin' On The Old Settee (1936)
TTITLE19=Sweet Mama Hurry Home (1937)
TTITLE20=Would You Leave Me Alone Little Darling (1936)
TTITLE21=The Last Love Call Yodel (1936)
TTITLE22=The Last Letter (1937)
TTITLE23=Over The River (1937)
TTITLE24=Answer To 'The Last Letter' (1939)
TTITLE25=My Hillbilly Baby (1939)
TTITLE26=I Think I'll Give Up (It's All Over Now) (1940)
TTITLE27=Beyond The Last Mile (1939)
EXTD=
EXTT0=
EXTT1=
EXTT2=
EXTT3=
EXTT4=
EXTT5=
EXTT6=
EXTT7=
EXTT8=
EXTT9=
EXTT10=
EXTT11=
EXTT12=
EXTT13=
EXTT14=
EXTT15=
EXTT16=
EXTT17=
EXTT18=
EXTT19=
EXTT20=
EXTT21=
EXTT22=
EXTT23=
EXTT24=
EXTT25=
EXTT26=
EXTT27=
PLAYORDER=
